<mxfile host="65bd71144e">
    <diagram id="2bmFdXmFBogVM8fUGb1J" name="Page-1">
        <mxGraphModel dx="621" dy="478" grid="0" gridSize="10" guides="1" tooltips="1" connect="1" arrows="1" fold="1" page="1" pageScale="1" pageWidth="827" pageHeight="1169" math="0" shadow="0">
            <root>
                <mxCell id="0"/>
                <mxCell id="1" parent="0"/>
                <mxCell id="X82TEkIW_1v4thmt-Yyp-21" style="edgeStyle=orthogonalEdgeStyle;rounded=0;orthogonalLoop=1;jettySize=auto;html=1;exitX=0;exitY=1;exitDx=0;exitDy=0;entryX=0.5;entryY=0;entryDx=0;entryDy=0;" parent="1" source="X82TEkIW_1v4thmt-Yyp-1" target="X82TEkIW_1v4thmt-Yyp-6" edge="1">
                    <mxGeometry relative="1" as="geometry"/>
                </mxCell>
                <mxCell id="X82TEkIW_1v4thmt-Yyp-23" style="edgeStyle=orthogonalEdgeStyle;rounded=0;orthogonalLoop=1;jettySize=auto;html=1;exitX=1;exitY=0.5;exitDx=0;exitDy=0;entryX=0.5;entryY=0;entryDx=0;entryDy=0;" parent="1" source="X82TEkIW_1v4thmt-Yyp-1" target="X82TEkIW_1v4thmt-Yyp-4" edge="1">
                    <mxGeometry relative="1" as="geometry"/>
                </mxCell>
                <mxCell id="X82TEkIW_1v4thmt-Yyp-52" style="edgeStyle=orthogonalEdgeStyle;rounded=0;orthogonalLoop=1;jettySize=auto;html=1;exitX=1;exitY=1;exitDx=0;exitDy=0;entryX=0.5;entryY=0;entryDx=0;entryDy=0;" parent="1" source="X82TEkIW_1v4thmt-Yyp-1" target="X82TEkIW_1v4thmt-Yyp-2" edge="1">
                    <mxGeometry relative="1" as="geometry"/>
                </mxCell>
                <mxCell id="X82TEkIW_1v4thmt-Yyp-53" style="edgeStyle=orthogonalEdgeStyle;rounded=0;orthogonalLoop=1;jettySize=auto;html=1;entryX=0.5;entryY=0;entryDx=0;entryDy=0;" parent="1" source="X82TEkIW_1v4thmt-Yyp-1" target="X82TEkIW_1v4thmt-Yyp-5" edge="1">
                    <mxGeometry relative="1" as="geometry"/>
                </mxCell>
                <mxCell id="X82TEkIW_1v4thmt-Yyp-1" value="main" style="rounded=0;whiteSpace=wrap;html=1;" parent="1" vertex="1">
                    <mxGeometry x="339" y="12" width="75" height="38" as="geometry"/>
                </mxCell>
                <mxCell id="X82TEkIW_1v4thmt-Yyp-84" style="edgeStyle=orthogonalEdgeStyle;rounded=0;orthogonalLoop=1;jettySize=auto;html=1;exitX=0.5;exitY=1;exitDx=0;exitDy=0;entryX=0;entryY=0.5;entryDx=0;entryDy=0;" parent="1" source="X82TEkIW_1v4thmt-Yyp-2" target="X82TEkIW_1v4thmt-Yyp-83" edge="1">
                    <mxGeometry relative="1" as="geometry"/>
                </mxCell>
                <mxCell id="X82TEkIW_1v4thmt-Yyp-92" style="edgeStyle=orthogonalEdgeStyle;rounded=0;orthogonalLoop=1;jettySize=auto;html=1;exitX=0.25;exitY=1;exitDx=0;exitDy=0;entryX=0;entryY=0.5;entryDx=0;entryDy=0;" parent="1" source="X82TEkIW_1v4thmt-Yyp-2" target="X82TEkIW_1v4thmt-Yyp-91" edge="1">
                    <mxGeometry relative="1" as="geometry"/>
                </mxCell>
                <mxCell id="X82TEkIW_1v4thmt-Yyp-95" style="edgeStyle=orthogonalEdgeStyle;rounded=0;orthogonalLoop=1;jettySize=auto;html=1;exitX=0;exitY=1;exitDx=0;exitDy=0;entryX=0;entryY=0.5;entryDx=0;entryDy=0;" parent="1" source="X82TEkIW_1v4thmt-Yyp-2" target="X82TEkIW_1v4thmt-Yyp-94" edge="1">
                    <mxGeometry relative="1" as="geometry"/>
                </mxCell>
                <mxCell id="X82TEkIW_1v4thmt-Yyp-96" style="edgeStyle=orthogonalEdgeStyle;rounded=0;orthogonalLoop=1;jettySize=auto;html=1;exitX=0.75;exitY=1;exitDx=0;exitDy=0;entryX=0;entryY=0.5;entryDx=0;entryDy=0;" parent="1" source="X82TEkIW_1v4thmt-Yyp-2" target="X82TEkIW_1v4thmt-Yyp-54" edge="1">
                    <mxGeometry relative="1" as="geometry">
                        <Array as="points">
                            <mxPoint x="447" y="184"/>
                        </Array>
                    </mxGeometry>
                </mxCell>
                <mxCell id="X82TEkIW_1v4thmt-Yyp-2" value="Cliente" style="rounded=0;whiteSpace=wrap;html=1;" parent="1" vertex="1">
                    <mxGeometry x="396" y="75" width="68" height="37" as="geometry"/>
                </mxCell>
                <mxCell id="X82TEkIW_1v4thmt-Yyp-28" style="edgeStyle=orthogonalEdgeStyle;rounded=0;orthogonalLoop=1;jettySize=auto;html=1;exitX=0.5;exitY=1;exitDx=0;exitDy=0;entryX=0;entryY=0.5;entryDx=0;entryDy=0;" parent="1" source="X82TEkIW_1v4thmt-Yyp-4" target="X82TEkIW_1v4thmt-Yyp-24" edge="1">
                    <mxGeometry relative="1" as="geometry"/>
                </mxCell>
                <mxCell id="X82TEkIW_1v4thmt-Yyp-30" style="edgeStyle=orthogonalEdgeStyle;rounded=0;orthogonalLoop=1;jettySize=auto;html=1;exitX=0.25;exitY=1;exitDx=0;exitDy=0;entryX=0;entryY=0.75;entryDx=0;entryDy=0;" parent="1" source="X82TEkIW_1v4thmt-Yyp-4" target="X82TEkIW_1v4thmt-Yyp-29" edge="1">
                    <mxGeometry relative="1" as="geometry"/>
                </mxCell>
                <mxCell id="X82TEkIW_1v4thmt-Yyp-4" value="Almacenista" style="rounded=0;whiteSpace=wrap;html=1;" parent="1" vertex="1">
                    <mxGeometry x="507" y="75" width="68" height="37" as="geometry"/>
                </mxCell>
                <mxCell id="X82TEkIW_1v4thmt-Yyp-168" style="edgeStyle=orthogonalEdgeStyle;rounded=0;orthogonalLoop=1;jettySize=auto;html=1;exitX=0.75;exitY=1;exitDx=0;exitDy=0;entryX=0;entryY=0.5;entryDx=0;entryDy=0;" parent="1" source="X82TEkIW_1v4thmt-Yyp-5" target="X82TEkIW_1v4thmt-Yyp-167" edge="1">
                    <mxGeometry relative="1" as="geometry"/>
                </mxCell>
                <mxCell id="X82TEkIW_1v4thmt-Yyp-172" style="edgeStyle=orthogonalEdgeStyle;rounded=0;orthogonalLoop=1;jettySize=auto;html=1;exitX=0.25;exitY=1;exitDx=0;exitDy=0;entryX=0;entryY=0.5;entryDx=0;entryDy=0;" parent="1" source="X82TEkIW_1v4thmt-Yyp-5" target="X82TEkIW_1v4thmt-Yyp-171" edge="1">
                    <mxGeometry relative="1" as="geometry"/>
                </mxCell>
                <mxCell id="X82TEkIW_1v4thmt-Yyp-5" value="Repartidor" style="rounded=0;whiteSpace=wrap;html=1;" parent="1" vertex="1">
                    <mxGeometry x="191" y="75" width="68" height="37" as="geometry"/>
                </mxCell>
                <mxCell id="X82TEkIW_1v4thmt-Yyp-117" style="edgeStyle=orthogonalEdgeStyle;rounded=0;orthogonalLoop=1;jettySize=auto;html=1;exitX=0.75;exitY=1;exitDx=0;exitDy=0;entryX=0;entryY=0.5;entryDx=0;entryDy=0;" parent="1" source="X82TEkIW_1v4thmt-Yyp-6" target="X82TEkIW_1v4thmt-Yyp-116" edge="1">
                    <mxGeometry relative="1" as="geometry"/>
                </mxCell>
                <mxCell id="X82TEkIW_1v4thmt-Yyp-122" style="edgeStyle=orthogonalEdgeStyle;rounded=0;orthogonalLoop=1;jettySize=auto;html=1;exitX=0.5;exitY=1;exitDx=0;exitDy=0;entryX=0;entryY=0.5;entryDx=0;entryDy=0;" parent="1" source="X82TEkIW_1v4thmt-Yyp-6" target="X82TEkIW_1v4thmt-Yyp-121" edge="1">
                    <mxGeometry relative="1" as="geometry"/>
                </mxCell>
                <mxCell id="X82TEkIW_1v4thmt-Yyp-132" style="edgeStyle=orthogonalEdgeStyle;rounded=0;orthogonalLoop=1;jettySize=auto;html=1;exitX=0.25;exitY=1;exitDx=0;exitDy=0;entryX=0;entryY=0.5;entryDx=0;entryDy=0;" parent="1" source="X82TEkIW_1v4thmt-Yyp-6" target="X82TEkIW_1v4thmt-Yyp-131" edge="1">
                    <mxGeometry relative="1" as="geometry"/>
                </mxCell>
                <mxCell id="X82TEkIW_1v4thmt-Yyp-146" style="edgeStyle=orthogonalEdgeStyle;rounded=0;orthogonalLoop=1;jettySize=auto;html=1;exitX=0;exitY=1;exitDx=0;exitDy=0;entryX=0;entryY=0.5;entryDx=0;entryDy=0;" parent="1" source="X82TEkIW_1v4thmt-Yyp-6" target="X82TEkIW_1v4thmt-Yyp-145" edge="1">
                    <mxGeometry relative="1" as="geometry"/>
                </mxCell>
                <mxCell id="X82TEkIW_1v4thmt-Yyp-6" value="Gerente" style="rounded=0;whiteSpace=wrap;html=1;" parent="1" vertex="1">
                    <mxGeometry x="285" y="75" width="68" height="37" as="geometry"/>
                </mxCell>
                <mxCell id="X82TEkIW_1v4thmt-Yyp-24" value="agregarProducto" style="rounded=1;whiteSpace=wrap;html=1;" parent="1" vertex="1">
                    <mxGeometry x="629" y="67.37" width="106" height="31" as="geometry"/>
                </mxCell>
                <mxCell id="X82TEkIW_1v4thmt-Yyp-39" style="edgeStyle=orthogonalEdgeStyle;rounded=0;orthogonalLoop=1;jettySize=auto;html=1;exitX=1;exitY=0.5;exitDx=0;exitDy=0;entryX=0;entryY=0.5;entryDx=0;entryDy=0;" parent="1" source="X82TEkIW_1v4thmt-Yyp-25" target="X82TEkIW_1v4thmt-Yyp-38" edge="1">
                    <mxGeometry relative="1" as="geometry"/>
                </mxCell>
                <mxCell id="X82TEkIW_1v4thmt-Yyp-25" value="&lt;font color=&quot;#0000cc&quot;&gt;crearProducto&lt;/font&gt;" style="shape=parallelogram;perimeter=parallelogramPerimeter;whiteSpace=wrap;html=1;fixedSize=1;" parent="1" vertex="1">
                    <mxGeometry x="799" y="64.12" width="106" height="37.5" as="geometry"/>
                </mxCell>
                <mxCell id="X82TEkIW_1v4thmt-Yyp-26" value="" style="edgeStyle=orthogonalEdgeStyle;rounded=0;orthogonalLoop=1;jettySize=auto;html=1;" parent="1" source="X82TEkIW_1v4thmt-Yyp-24" target="X82TEkIW_1v4thmt-Yyp-25" edge="1">
                    <mxGeometry relative="1" as="geometry"/>
                </mxCell>
                <mxCell id="X82TEkIW_1v4thmt-Yyp-36" style="edgeStyle=orthogonalEdgeStyle;rounded=0;orthogonalLoop=1;jettySize=auto;html=1;" parent="1" source="X82TEkIW_1v4thmt-Yyp-29" target="X82TEkIW_1v4thmt-Yyp-35" edge="1">
                    <mxGeometry relative="1" as="geometry"/>
                </mxCell>
                <mxCell id="X82TEkIW_1v4thmt-Yyp-29" value="listaProductos" style="rounded=1;whiteSpace=wrap;html=1;" parent="1" vertex="1">
                    <mxGeometry x="629" y="125.37" width="106" height="31" as="geometry"/>
                </mxCell>
                <mxCell id="X82TEkIW_1v4thmt-Yyp-60" style="edgeStyle=orthogonalEdgeStyle;rounded=0;orthogonalLoop=1;jettySize=auto;html=1;entryX=1;entryY=0.5;entryDx=0;entryDy=0;" parent="1" source="X82TEkIW_1v4thmt-Yyp-34" target="X82TEkIW_1v4thmt-Yyp-38" edge="1">
                    <mxGeometry relative="1" as="geometry">
                        <Array as="points">
                            <mxPoint x="1414" y="83"/>
                        </Array>
                    </mxGeometry>
                </mxCell>
                <mxCell id="X82TEkIW_1v4thmt-Yyp-34" value="&lt;font color=&quot;#0000cc&quot;&gt;imprimirProducto&lt;/font&gt;" style="shape=parallelogram;perimeter=parallelogramPerimeter;whiteSpace=wrap;html=1;fixedSize=1;" parent="1" vertex="1">
                    <mxGeometry x="1352" y="122.12" width="124" height="37.5" as="geometry"/>
                </mxCell>
                <mxCell id="X82TEkIW_1v4thmt-Yyp-58" style="edgeStyle=orthogonalEdgeStyle;rounded=0;orthogonalLoop=1;jettySize=auto;html=1;entryX=0;entryY=0.5;entryDx=0;entryDy=0;" parent="1" source="X82TEkIW_1v4thmt-Yyp-35" target="X82TEkIW_1v4thmt-Yyp-73" edge="1">
                    <mxGeometry relative="1" as="geometry">
                        <mxPoint x="948.4000000000001" y="140.87" as="targetPoint"/>
                    </mxGeometry>
                </mxCell>
                <mxCell id="X82TEkIW_1v4thmt-Yyp-35" value="&lt;font color=&quot;#0000cc&quot;&gt;imprimirListaProductos&lt;/font&gt;" style="shape=parallelogram;perimeter=parallelogramPerimeter;whiteSpace=wrap;html=1;fixedSize=1;" parent="1" vertex="1">
                    <mxGeometry x="775" y="122.12" width="154" height="37.5" as="geometry"/>
                </mxCell>
                <mxCell id="X82TEkIW_1v4thmt-Yyp-38" value="&lt;font color=&quot;#0000cc&quot;&gt;Estructura(elemento) Producto&lt;/font&gt;" style="shape=hexagon;perimeter=hexagonPerimeter2;whiteSpace=wrap;html=1;fixedSize=1;" parent="1" vertex="1">
                    <mxGeometry x="1195" y="59.99" width="141" height="45.75" as="geometry"/>
                </mxCell>
                <mxCell id="X82TEkIW_1v4thmt-Yyp-62" style="edgeStyle=orthogonalEdgeStyle;rounded=0;orthogonalLoop=1;jettySize=auto;html=1;exitX=1;exitY=0.5;exitDx=0;exitDy=0;entryX=0.5;entryY=1;entryDx=0;entryDy=0;" parent="1" source="X82TEkIW_1v4thmt-Yyp-54" target="X82TEkIW_1v4thmt-Yyp-57" edge="1">
                    <mxGeometry relative="1" as="geometry"/>
                </mxCell>
                <mxCell id="X82TEkIW_1v4thmt-Yyp-79" style="edgeStyle=orthogonalEdgeStyle;rounded=0;orthogonalLoop=1;jettySize=auto;html=1;entryX=0;entryY=0.25;entryDx=0;entryDy=0;" parent="1" source="X82TEkIW_1v4thmt-Yyp-54" target="X82TEkIW_1v4thmt-Yyp-76" edge="1">
                    <mxGeometry relative="1" as="geometry"/>
                </mxCell>
                <mxCell id="X82TEkIW_1v4thmt-Yyp-54" value="seleccionProducto" style="rounded=1;whiteSpace=wrap;html=1;" parent="1" vertex="1">
                    <mxGeometry x="464" y="169" width="106" height="31" as="geometry"/>
                </mxCell>
                <mxCell id="X82TEkIW_1v4thmt-Yyp-59" style="edgeStyle=orthogonalEdgeStyle;rounded=0;orthogonalLoop=1;jettySize=auto;html=1;entryX=0;entryY=0.5;entryDx=0;entryDy=0;" parent="1" source="X82TEkIW_1v4thmt-Yyp-57" target="X82TEkIW_1v4thmt-Yyp-34" edge="1">
                    <mxGeometry relative="1" as="geometry"/>
                </mxCell>
                <mxCell id="X82TEkIW_1v4thmt-Yyp-75" style="edgeStyle=orthogonalEdgeStyle;rounded=0;orthogonalLoop=1;jettySize=auto;html=1;exitX=0.5;exitY=0;exitDx=0;exitDy=0;entryX=0.5;entryY=1;entryDx=0;entryDy=0;" parent="1" source="X82TEkIW_1v4thmt-Yyp-57" target="X82TEkIW_1v4thmt-Yyp-38" edge="1">
                    <mxGeometry relative="1" as="geometry"/>
                </mxCell>
                <mxCell id="X82TEkIW_1v4thmt-Yyp-57" value="&lt;font color=&quot;#0000cc&quot;&gt;Estructura Lista Productos&lt;/font&gt;" style="shape=hexagon;perimeter=hexagonPerimeter2;whiteSpace=wrap;html=1;fixedSize=1;" parent="1" vertex="1">
                    <mxGeometry x="1184" y="117.99" width="114" height="45.75" as="geometry"/>
                </mxCell>
                <mxCell id="X82TEkIW_1v4thmt-Yyp-184" style="edgeStyle=orthogonalEdgeStyle;rounded=0;orthogonalLoop=1;jettySize=auto;html=1;exitX=1;exitY=0.5;exitDx=0;exitDy=0;entryX=0.894;entryY=0.153;entryDx=0;entryDy=0;entryPerimeter=0;fontColor=#0000CC;" parent="1" source="X82TEkIW_1v4thmt-Yyp-63" target="X82TEkIW_1v4thmt-Yyp-38" edge="1">
                    <mxGeometry relative="1" as="geometry">
                        <Array as="points">
                            <mxPoint x="1577" y="222"/>
                            <mxPoint x="1577" y="67"/>
                        </Array>
                    </mxGeometry>
                </mxCell>
                <mxCell id="X82TEkIW_1v4thmt-Yyp-63" value="&lt;font color=&quot;#0000cc&quot;&gt;Estructura Lista Carrito&lt;/font&gt;" style="shape=hexagon;perimeter=hexagonPerimeter2;whiteSpace=wrap;html=1;fixedSize=1;" parent="1" vertex="1">
                    <mxGeometry x="1051" y="198.89" width="114" height="45.75" as="geometry"/>
                </mxCell>
                <mxCell id="X82TEkIW_1v4thmt-Yyp-67" style="edgeStyle=orthogonalEdgeStyle;rounded=0;orthogonalLoop=1;jettySize=auto;html=1;entryX=0;entryY=0.5;entryDx=0;entryDy=0;" parent="1" source="X82TEkIW_1v4thmt-Yyp-65" target="X82TEkIW_1v4thmt-Yyp-63" edge="1">
                    <mxGeometry relative="1" as="geometry"/>
                </mxCell>
                <mxCell id="X82TEkIW_1v4thmt-Yyp-65" value="&lt;font color=&quot;#0000cc&quot;&gt;nuevaListaCarrito&lt;/font&gt;" style="shape=parallelogram;perimeter=parallelogramPerimeter;whiteSpace=wrap;html=1;fixedSize=1;" parent="1" vertex="1">
                    <mxGeometry x="805" y="206.01" width="131" height="31.5" as="geometry"/>
                </mxCell>
                <mxCell id="X82TEkIW_1v4thmt-Yyp-74" style="edgeStyle=orthogonalEdgeStyle;rounded=0;orthogonalLoop=1;jettySize=auto;html=1;entryX=0;entryY=0.5;entryDx=0;entryDy=0;" parent="1" source="X82TEkIW_1v4thmt-Yyp-73" target="X82TEkIW_1v4thmt-Yyp-57" edge="1">
                    <mxGeometry relative="1" as="geometry"/>
                </mxCell>
                <mxCell id="X82TEkIW_1v4thmt-Yyp-73" value="&lt;font color=&quot;#0000cc&quot;&gt;vaciaListaProductos&lt;/font&gt;" style="shape=parallelogram;perimeter=parallelogramPerimeter;whiteSpace=wrap;html=1;fixedSize=1;" parent="1" vertex="1">
                    <mxGeometry x="987" y="122.11" width="140" height="37.5" as="geometry"/>
                </mxCell>
                <mxCell id="X82TEkIW_1v4thmt-Yyp-87" style="edgeStyle=orthogonalEdgeStyle;rounded=0;orthogonalLoop=1;jettySize=auto;html=1;" parent="1" source="X82TEkIW_1v4thmt-Yyp-76" target="X82TEkIW_1v4thmt-Yyp-65" edge="1">
                    <mxGeometry relative="1" as="geometry"/>
                </mxCell>
                <mxCell id="X82TEkIW_1v4thmt-Yyp-76" value="elegirProducto" style="shape=parallelogram;perimeter=parallelogramPerimeter;whiteSpace=wrap;html=1;fixedSize=1;" parent="1" vertex="1">
                    <mxGeometry x="565" y="206.01" width="131" height="31.5" as="geometry"/>
                </mxCell>
                <mxCell id="X82TEkIW_1v4thmt-Yyp-89" style="edgeStyle=orthogonalEdgeStyle;rounded=0;orthogonalLoop=1;jettySize=auto;html=1;entryX=0.5;entryY=1;entryDx=0;entryDy=0;" parent="1" source="X82TEkIW_1v4thmt-Yyp-80" target="X82TEkIW_1v4thmt-Yyp-63" edge="1">
                    <mxGeometry relative="1" as="geometry"/>
                </mxCell>
                <mxCell id="X82TEkIW_1v4thmt-Yyp-80" value="&lt;font color=&quot;#0000cc&quot;&gt;vaciaListaCarrito&lt;/font&gt;" style="shape=parallelogram;perimeter=parallelogramPerimeter;whiteSpace=wrap;html=1;fixedSize=1;" parent="1" vertex="1">
                    <mxGeometry x="760" y="262" width="131" height="31.5" as="geometry"/>
                </mxCell>
                <mxCell id="X82TEkIW_1v4thmt-Yyp-86" style="edgeStyle=orthogonalEdgeStyle;rounded=0;orthogonalLoop=1;jettySize=auto;html=1;" parent="1" source="X82TEkIW_1v4thmt-Yyp-83" target="X82TEkIW_1v4thmt-Yyp-85" edge="1">
                    <mxGeometry relative="1" as="geometry"/>
                </mxCell>
                <mxCell id="X82TEkIW_1v4thmt-Yyp-83" value="revisarCarrito" style="rounded=1;whiteSpace=wrap;html=1;" parent="1" vertex="1">
                    <mxGeometry x="464" y="262" width="106" height="31" as="geometry"/>
                </mxCell>
                <mxCell id="X82TEkIW_1v4thmt-Yyp-88" style="edgeStyle=orthogonalEdgeStyle;rounded=0;orthogonalLoop=1;jettySize=auto;html=1;entryX=0;entryY=0.5;entryDx=0;entryDy=0;" parent="1" source="X82TEkIW_1v4thmt-Yyp-85" target="X82TEkIW_1v4thmt-Yyp-80" edge="1">
                    <mxGeometry relative="1" as="geometry"/>
                </mxCell>
                <mxCell id="X82TEkIW_1v4thmt-Yyp-85" value="&lt;font color=&quot;#0000cc&quot;&gt;imprimirListaCarrito&lt;/font&gt;" style="shape=parallelogram;perimeter=parallelogramPerimeter;whiteSpace=wrap;html=1;fixedSize=1;" parent="1" vertex="1">
                    <mxGeometry x="592" y="261.5" width="149" height="31.5" as="geometry"/>
                </mxCell>
                <mxCell id="X82TEkIW_1v4thmt-Yyp-93" style="edgeStyle=orthogonalEdgeStyle;rounded=0;orthogonalLoop=1;jettySize=auto;html=1;entryX=0.5;entryY=1;entryDx=0;entryDy=0;" parent="1" source="X82TEkIW_1v4thmt-Yyp-91" target="X82TEkIW_1v4thmt-Yyp-83" edge="1">
                    <mxGeometry relative="1" as="geometry"/>
                </mxCell>
                <mxCell id="X82TEkIW_1v4thmt-Yyp-91" value="eliminarProducto" style="rounded=1;whiteSpace=wrap;html=1;" parent="1" vertex="1">
                    <mxGeometry x="464" y="323" width="106" height="31" as="geometry"/>
                </mxCell>
                <mxCell id="X82TEkIW_1v4thmt-Yyp-97" style="edgeStyle=orthogonalEdgeStyle;rounded=0;orthogonalLoop=1;jettySize=auto;html=1;exitX=1;exitY=0.25;exitDx=0;exitDy=0;entryX=0.5;entryY=1;entryDx=0;entryDy=0;" parent="1" source="X82TEkIW_1v4thmt-Yyp-94" target="X82TEkIW_1v4thmt-Yyp-85" edge="1">
                    <mxGeometry relative="1" as="geometry"/>
                </mxCell>
                <mxCell id="X82TEkIW_1v4thmt-Yyp-100" style="edgeStyle=orthogonalEdgeStyle;rounded=0;orthogonalLoop=1;jettySize=auto;html=1;exitX=1;exitY=0.5;exitDx=0;exitDy=0;entryX=0;entryY=0.5;entryDx=0;entryDy=0;" parent="1" source="X82TEkIW_1v4thmt-Yyp-94" target="X82TEkIW_1v4thmt-Yyp-99" edge="1">
                    <mxGeometry relative="1" as="geometry">
                        <mxPoint x="673.2" y="386.79999999999995" as="targetPoint"/>
                    </mxGeometry>
                </mxCell>
                <mxCell id="X82TEkIW_1v4thmt-Yyp-107" style="edgeStyle=orthogonalEdgeStyle;rounded=0;orthogonalLoop=1;jettySize=auto;html=1;entryX=0;entryY=0.5;entryDx=0;entryDy=0;" parent="1" source="X82TEkIW_1v4thmt-Yyp-94" target="X82TEkIW_1v4thmt-Yyp-106" edge="1">
                    <mxGeometry relative="1" as="geometry">
                        <Array as="points">
                            <mxPoint x="515" y="437"/>
                        </Array>
                    </mxGeometry>
                </mxCell>
                <mxCell id="X82TEkIW_1v4thmt-Yyp-94" value="realizarPedido" style="rounded=1;whiteSpace=wrap;html=1;" parent="1" vertex="1">
                    <mxGeometry x="464" y="371" width="106" height="31" as="geometry"/>
                </mxCell>
                <mxCell id="X82TEkIW_1v4thmt-Yyp-98" value="&lt;font color=&quot;#0000cc&quot;&gt;Estructura(elemento) Cliente&lt;/font&gt;" style="shape=hexagon;perimeter=hexagonPerimeter2;whiteSpace=wrap;html=1;fixedSize=1;" parent="1" vertex="1">
                    <mxGeometry x="1057" y="363.37" width="144" height="45.75" as="geometry"/>
                </mxCell>
                <mxCell id="X82TEkIW_1v4thmt-Yyp-103" value="" style="edgeStyle=orthogonalEdgeStyle;rounded=0;orthogonalLoop=1;jettySize=auto;html=1;" parent="1" source="X82TEkIW_1v4thmt-Yyp-99" target="X82TEkIW_1v4thmt-Yyp-102" edge="1">
                    <mxGeometry relative="1" as="geometry"/>
                </mxCell>
                <mxCell id="X82TEkIW_1v4thmt-Yyp-99" value="pedirDatosCliente" style="shape=parallelogram;perimeter=parallelogramPerimeter;whiteSpace=wrap;html=1;fixedSize=1;" parent="1" vertex="1">
                    <mxGeometry x="668" y="370.5" width="131" height="31.5" as="geometry"/>
                </mxCell>
                <mxCell id="X82TEkIW_1v4thmt-Yyp-104" style="edgeStyle=orthogonalEdgeStyle;rounded=0;orthogonalLoop=1;jettySize=auto;html=1;entryX=0;entryY=0.5;entryDx=0;entryDy=0;" parent="1" source="X82TEkIW_1v4thmt-Yyp-102" target="X82TEkIW_1v4thmt-Yyp-98" edge="1">
                    <mxGeometry relative="1" as="geometry"/>
                </mxCell>
                <mxCell id="X82TEkIW_1v4thmt-Yyp-102" value="&lt;font color=&quot;#0000cc&quot;&gt;nuevoCliente&lt;/font&gt;" style="shape=parallelogram;perimeter=parallelogramPerimeter;whiteSpace=wrap;html=1;fixedSize=1;" parent="1" vertex="1">
                    <mxGeometry x="879" y="370.5" width="131" height="31.5" as="geometry"/>
                </mxCell>
                <mxCell id="X82TEkIW_1v4thmt-Yyp-109" style="edgeStyle=orthogonalEdgeStyle;rounded=0;orthogonalLoop=1;jettySize=auto;html=1;entryX=0;entryY=0.5;entryDx=0;entryDy=0;" parent="1" source="X82TEkIW_1v4thmt-Yyp-106" target="X82TEkIW_1v4thmt-Yyp-108" edge="1">
                    <mxGeometry relative="1" as="geometry"/>
                </mxCell>
                <mxCell id="X82TEkIW_1v4thmt-Yyp-106" value="&lt;font color=&quot;#0000ff&quot;&gt;pushPedido&lt;/font&gt;" style="shape=parallelogram;perimeter=parallelogramPerimeter;whiteSpace=wrap;html=1;fixedSize=1;" parent="1" vertex="1">
                    <mxGeometry x="647" y="420" width="131" height="31.5" as="geometry"/>
                </mxCell>
                <mxCell id="X82TEkIW_1v4thmt-Yyp-111" style="edgeStyle=orthogonalEdgeStyle;rounded=0;orthogonalLoop=1;jettySize=auto;html=1;exitX=1;exitY=0.5;exitDx=0;exitDy=0;entryX=0;entryY=0.5;entryDx=0;entryDy=0;" parent="1" source="X82TEkIW_1v4thmt-Yyp-108" target="X82TEkIW_1v4thmt-Yyp-110" edge="1">
                    <mxGeometry relative="1" as="geometry"/>
                </mxCell>
                <mxCell id="X82TEkIW_1v4thmt-Yyp-108" value="&lt;font color=&quot;#0000ff&quot;&gt;vacioPedidos&lt;/font&gt;" style="shape=parallelogram;perimeter=parallelogramPerimeter;whiteSpace=wrap;html=1;fixedSize=1;" parent="1" vertex="1">
                    <mxGeometry x="849" y="420" width="131" height="31.5" as="geometry"/>
                </mxCell>
                <mxCell id="X82TEkIW_1v4thmt-Yyp-110" value="&lt;font color=&quot;#0000cc&quot;&gt;Estructura(cola) Pedidos&lt;/font&gt;" style="shape=hexagon;perimeter=hexagonPerimeter2;whiteSpace=wrap;html=1;fixedSize=1;" parent="1" vertex="1">
                    <mxGeometry x="1057" y="412.87" width="114" height="45.75" as="geometry"/>
                </mxCell>
                <mxCell id="X82TEkIW_1v4thmt-Yyp-113" style="edgeStyle=orthogonalEdgeStyle;rounded=0;orthogonalLoop=1;jettySize=auto;html=1;entryX=0.916;entryY=0.84;entryDx=0;entryDy=0;entryPerimeter=0;" parent="1" source="X82TEkIW_1v4thmt-Yyp-112" target="X82TEkIW_1v4thmt-Yyp-57" edge="1">
                    <mxGeometry relative="1" as="geometry"/>
                </mxCell>
                <mxCell id="X82TEkIW_1v4thmt-Yyp-112" value="&lt;font color=&quot;#0000cc&quot;&gt;crearListaProductos&lt;/font&gt;" style="ellipse;whiteSpace=wrap;html=1;" parent="1" vertex="1">
                    <mxGeometry x="1440" y="170" width="129" height="30" as="geometry"/>
                </mxCell>
                <mxCell id="X82TEkIW_1v4thmt-Yyp-115" style="edgeStyle=orthogonalEdgeStyle;rounded=0;orthogonalLoop=1;jettySize=auto;html=1;entryX=1;entryY=0.5;entryDx=0;entryDy=0;" parent="1" source="X82TEkIW_1v4thmt-Yyp-114" target="X82TEkIW_1v4thmt-Yyp-110" edge="1">
                    <mxGeometry relative="1" as="geometry"/>
                </mxCell>
                <mxCell id="X82TEkIW_1v4thmt-Yyp-114" value="&lt;font color=&quot;#0000ff&quot;&gt;crearColaPedidos&lt;/font&gt;" style="ellipse;whiteSpace=wrap;html=1;" parent="1" vertex="1">
                    <mxGeometry x="1261" y="420.74" width="129" height="30" as="geometry"/>
                </mxCell>
                <mxCell id="X82TEkIW_1v4thmt-Yyp-119" style="edgeStyle=orthogonalEdgeStyle;rounded=0;orthogonalLoop=1;jettySize=auto;html=1;exitX=1;exitY=0.5;exitDx=0;exitDy=0;entryX=0;entryY=0.5;entryDx=0;entryDy=0;" parent="1" source="X82TEkIW_1v4thmt-Yyp-116" target="X82TEkIW_1v4thmt-Yyp-118" edge="1">
                    <mxGeometry relative="1" as="geometry">
                        <Array as="points">
                            <mxPoint x="507" y="488"/>
                        </Array>
                    </mxGeometry>
                </mxCell>
                <mxCell id="X82TEkIW_1v4thmt-Yyp-116" value="verPedidos" style="rounded=1;whiteSpace=wrap;html=1;" parent="1" vertex="1">
                    <mxGeometry x="403" y="472.5" width="106" height="31" as="geometry"/>
                </mxCell>
                <mxCell id="X82TEkIW_1v4thmt-Yyp-120" style="edgeStyle=orthogonalEdgeStyle;rounded=0;orthogonalLoop=1;jettySize=auto;html=1;exitX=1;exitY=0.5;exitDx=0;exitDy=0;entryX=0.5;entryY=1;entryDx=0;entryDy=0;" parent="1" source="X82TEkIW_1v4thmt-Yyp-118" target="X82TEkIW_1v4thmt-Yyp-108" edge="1">
                    <mxGeometry relative="1" as="geometry"/>
                </mxCell>
                <mxCell id="X82TEkIW_1v4thmt-Yyp-118" value="imprimirColaPedidos(dump?)" style="shape=parallelogram;perimeter=parallelogramPerimeter;whiteSpace=wrap;html=1;fixedSize=1;" parent="1" vertex="1">
                    <mxGeometry x="618" y="472" width="189" height="31.5" as="geometry"/>
                </mxCell>
                <mxCell id="X82TEkIW_1v4thmt-Yyp-124" style="edgeStyle=orthogonalEdgeStyle;rounded=0;orthogonalLoop=1;jettySize=auto;html=1;exitX=1;exitY=0.5;exitDx=0;exitDy=0;entryX=0.017;entryY=0.584;entryDx=0;entryDy=0;entryPerimeter=0;" parent="1" source="X82TEkIW_1v4thmt-Yyp-121" target="X82TEkIW_1v4thmt-Yyp-123" edge="1">
                    <mxGeometry relative="1" as="geometry"/>
                </mxCell>
                <mxCell id="X82TEkIW_1v4thmt-Yyp-121" value="repartidoresEspera" style="rounded=1;whiteSpace=wrap;html=1;" parent="1" vertex="1">
                    <mxGeometry x="405" y="521" width="106" height="31" as="geometry"/>
                </mxCell>
                <mxCell id="X82TEkIW_1v4thmt-Yyp-128" style="edgeStyle=orthogonalEdgeStyle;rounded=0;orthogonalLoop=1;jettySize=auto;html=1;entryX=0;entryY=0.5;entryDx=0;entryDy=0;" parent="1" source="X82TEkIW_1v4thmt-Yyp-123" target="X82TEkIW_1v4thmt-Yyp-126" edge="1">
                    <mxGeometry relative="1" as="geometry"/>
                </mxCell>
                <mxCell id="X82TEkIW_1v4thmt-Yyp-123" value="imprimirColaRepartidoresEspera(dump?)" style="shape=parallelogram;perimeter=parallelogramPerimeter;whiteSpace=wrap;html=1;fixedSize=1;" parent="1" vertex="1">
                    <mxGeometry x="556" y="518" width="256" height="31.5" as="geometry"/>
                </mxCell>
                <mxCell id="X82TEkIW_1v4thmt-Yyp-130" style="edgeStyle=orthogonalEdgeStyle;rounded=0;orthogonalLoop=1;jettySize=auto;html=1;entryX=0;entryY=0.5;entryDx=0;entryDy=0;" parent="1" source="X82TEkIW_1v4thmt-Yyp-126" target="X82TEkIW_1v4thmt-Yyp-129" edge="1">
                    <mxGeometry relative="1" as="geometry"/>
                </mxCell>
                <mxCell id="X82TEkIW_1v4thmt-Yyp-126" value="&lt;font color=&quot;#0000ff&quot;&gt;vacioRepartidor&lt;/font&gt;" style="shape=parallelogram;perimeter=parallelogramPerimeter;whiteSpace=wrap;html=1;fixedSize=1;" parent="1" vertex="1">
                    <mxGeometry x="891" y="518" width="131" height="31.5" as="geometry"/>
                </mxCell>
                <mxCell id="X82TEkIW_1v4thmt-Yyp-129" value="&lt;font color=&quot;#0000ff&quot;&gt;Estructura(cola) RepartidoresEspera&lt;/font&gt;" style="shape=hexagon;perimeter=hexagonPerimeter2;whiteSpace=wrap;html=1;fixedSize=1;" parent="1" vertex="1">
                    <mxGeometry x="1059" y="510.88" width="136" height="45.75" as="geometry"/>
                </mxCell>
                <mxCell id="X82TEkIW_1v4thmt-Yyp-135" style="edgeStyle=orthogonalEdgeStyle;rounded=0;orthogonalLoop=1;jettySize=auto;html=1;entryX=0;entryY=0.5;entryDx=0;entryDy=0;" parent="1" source="X82TEkIW_1v4thmt-Yyp-131" target="X82TEkIW_1v4thmt-Yyp-133" edge="1">
                    <mxGeometry relative="1" as="geometry"/>
                </mxCell>
                <mxCell id="X82TEkIW_1v4thmt-Yyp-131" value="repartidoresTransito" style="rounded=1;whiteSpace=wrap;html=1;" parent="1" vertex="1">
                    <mxGeometry x="405" y="581" width="112" height="31" as="geometry"/>
                </mxCell>
                <mxCell id="X82TEkIW_1v4thmt-Yyp-137" style="edgeStyle=orthogonalEdgeStyle;rounded=0;orthogonalLoop=1;jettySize=auto;html=1;entryX=0;entryY=0.5;entryDx=0;entryDy=0;" parent="1" source="X82TEkIW_1v4thmt-Yyp-133" target="X82TEkIW_1v4thmt-Yyp-136" edge="1">
                    <mxGeometry relative="1" as="geometry"/>
                </mxCell>
                <mxCell id="X82TEkIW_1v4thmt-Yyp-133" value="&lt;font color=&quot;#0000cc&quot;&gt;imprimirListaRepartidoresTransito&lt;/font&gt;" style="shape=parallelogram;perimeter=parallelogramPerimeter;whiteSpace=wrap;html=1;fixedSize=1;" parent="1" vertex="1">
                    <mxGeometry x="550" y="581" width="218" height="31.5" as="geometry"/>
                </mxCell>
                <mxCell id="X82TEkIW_1v4thmt-Yyp-140" style="edgeStyle=orthogonalEdgeStyle;rounded=0;orthogonalLoop=1;jettySize=auto;html=1;entryX=0;entryY=0.5;entryDx=0;entryDy=0;" parent="1" source="X82TEkIW_1v4thmt-Yyp-136" target="X82TEkIW_1v4thmt-Yyp-139" edge="1">
                    <mxGeometry relative="1" as="geometry"/>
                </mxCell>
                <mxCell id="X82TEkIW_1v4thmt-Yyp-136" value="&lt;font color=&quot;#0000cc&quot;&gt;vaciaListaRepartidoresTransito&lt;/font&gt;" style="shape=parallelogram;perimeter=parallelogramPerimeter;whiteSpace=wrap;html=1;fixedSize=1;" parent="1" vertex="1">
                    <mxGeometry x="860" y="581" width="201" height="31.5" as="geometry"/>
                </mxCell>
                <mxCell id="X82TEkIW_1v4thmt-Yyp-139" value="&lt;font color=&quot;#0000cc&quot;&gt;Estructura Lista RepartidoresTransito&lt;/font&gt;" style="shape=hexagon;perimeter=hexagonPerimeter2;whiteSpace=wrap;html=1;fixedSize=1;" parent="1" vertex="1">
                    <mxGeometry x="1116" y="573.88" width="142" height="45.75" as="geometry"/>
                </mxCell>
                <mxCell id="X82TEkIW_1v4thmt-Yyp-142" style="edgeStyle=orthogonalEdgeStyle;rounded=0;orthogonalLoop=1;jettySize=auto;html=1;entryX=1;entryY=0.5;entryDx=0;entryDy=0;" parent="1" source="X82TEkIW_1v4thmt-Yyp-141" target="X82TEkIW_1v4thmt-Yyp-139" edge="1">
                    <mxGeometry relative="1" as="geometry"/>
                </mxCell>
                <mxCell id="X82TEkIW_1v4thmt-Yyp-141" value="&lt;font color=&quot;#0000cc&quot;&gt;nuevaListaRepartidoresTransito&lt;/font&gt;" style="ellipse;whiteSpace=wrap;html=1;" parent="1" vertex="1">
                    <mxGeometry x="1278" y="581" width="195" height="30" as="geometry"/>
                </mxCell>
                <mxCell id="X82TEkIW_1v4thmt-Yyp-176" style="edgeStyle=orthogonalEdgeStyle;rounded=0;orthogonalLoop=1;jettySize=auto;html=1;entryX=1;entryY=0.5;entryDx=0;entryDy=0;" parent="1" source="X82TEkIW_1v4thmt-Yyp-143" target="X82TEkIW_1v4thmt-Yyp-129" edge="1">
                    <mxGeometry relative="1" as="geometry"/>
                </mxCell>
                <mxCell id="X82TEkIW_1v4thmt-Yyp-143" value="crearColaRepartidor" style="ellipse;whiteSpace=wrap;html=1;" parent="1" vertex="1">
                    <mxGeometry x="1223" y="519.5" width="129" height="30" as="geometry"/>
                </mxCell>
                <mxCell id="X82TEkIW_1v4thmt-Yyp-157" style="edgeStyle=orthogonalEdgeStyle;rounded=0;orthogonalLoop=1;jettySize=auto;html=1;exitX=0.75;exitY=0;exitDx=0;exitDy=0;entryX=0;entryY=0.5;entryDx=0;entryDy=0;" parent="1" source="X82TEkIW_1v4thmt-Yyp-145" target="X82TEkIW_1v4thmt-Yyp-153" edge="1">
                    <mxGeometry relative="1" as="geometry">
                        <Array as="points">
                            <mxPoint x="489" y="642"/>
                        </Array>
                    </mxGeometry>
                </mxCell>
                <mxCell id="X82TEkIW_1v4thmt-Yyp-161" style="edgeStyle=orthogonalEdgeStyle;rounded=0;orthogonalLoop=1;jettySize=auto;html=1;exitX=1;exitY=0.5;exitDx=0;exitDy=0;entryX=0;entryY=0;entryDx=0;entryDy=0;" parent="1" source="X82TEkIW_1v4thmt-Yyp-145" target="X82TEkIW_1v4thmt-Yyp-149" edge="1">
                    <mxGeometry relative="1" as="geometry">
                        <Array as="points">
                            <mxPoint x="622" y="664"/>
                            <mxPoint x="743" y="664"/>
                        </Array>
                    </mxGeometry>
                </mxCell>
                <mxCell id="X82TEkIW_1v4thmt-Yyp-165" style="edgeStyle=orthogonalEdgeStyle;rounded=0;orthogonalLoop=1;jettySize=auto;html=1;exitX=1;exitY=1;exitDx=0;exitDy=0;" parent="1" source="X82TEkIW_1v4thmt-Yyp-145" target="X82TEkIW_1v4thmt-Yyp-159" edge="1">
                    <mxGeometry relative="1" as="geometry">
                        <Array as="points">
                            <mxPoint x="517" y="693"/>
                        </Array>
                    </mxGeometry>
                </mxCell>
                <mxCell id="X82TEkIW_1v4thmt-Yyp-170" style="edgeStyle=orthogonalEdgeStyle;rounded=0;orthogonalLoop=1;jettySize=auto;html=1;exitX=0.75;exitY=1;exitDx=0;exitDy=0;entryX=1;entryY=0.75;entryDx=0;entryDy=0;" parent="1" source="X82TEkIW_1v4thmt-Yyp-145" target="X82TEkIW_1v4thmt-Yyp-98" edge="1">
                    <mxGeometry relative="1" as="geometry">
                        <Array as="points">
                            <mxPoint x="489" y="718"/>
                            <mxPoint x="1535" y="718"/>
                            <mxPoint x="1535" y="396"/>
                        </Array>
                    </mxGeometry>
                </mxCell>
                <mxCell id="X82TEkIW_1v4thmt-Yyp-145" value="asignarPedido" style="rounded=1;whiteSpace=wrap;html=1;" parent="1" vertex="1">
                    <mxGeometry x="405" y="649" width="112" height="31" as="geometry"/>
                </mxCell>
                <mxCell id="X82TEkIW_1v4thmt-Yyp-151" style="edgeStyle=orthogonalEdgeStyle;rounded=0;orthogonalLoop=1;jettySize=auto;html=1;entryX=0.75;entryY=1;entryDx=0;entryDy=0;" parent="1" source="X82TEkIW_1v4thmt-Yyp-149" target="X82TEkIW_1v4thmt-Yyp-126" edge="1">
                    <mxGeometry relative="1" as="geometry">
                        <Array as="points">
                            <mxPoint x="1503" y="673"/>
                            <mxPoint x="1503" y="565"/>
                            <mxPoint x="989" y="565"/>
                        </Array>
                    </mxGeometry>
                </mxCell>
                <mxCell id="X82TEkIW_1v4thmt-Yyp-149" value="&lt;font color=&quot;#0000ff&quot;&gt;popRepartidor&lt;/font&gt;" style="shape=parallelogram;perimeter=parallelogramPerimeter;whiteSpace=wrap;html=1;fixedSize=1;" parent="1" vertex="1">
                    <mxGeometry x="726" y="657.5" width="131" height="31.5" as="geometry"/>
                </mxCell>
                <mxCell id="X82TEkIW_1v4thmt-Yyp-156" style="edgeStyle=orthogonalEdgeStyle;rounded=0;orthogonalLoop=1;jettySize=auto;html=1;exitX=1;exitY=0.5;exitDx=0;exitDy=0;entryX=0.5;entryY=1;entryDx=0;entryDy=0;" parent="1" source="X82TEkIW_1v4thmt-Yyp-153" target="X82TEkIW_1v4thmt-Yyp-139" edge="1">
                    <mxGeometry relative="1" as="geometry"/>
                </mxCell>
                <mxCell id="X82TEkIW_1v4thmt-Yyp-153" value="agregarRepartidorTransito" style="shape=parallelogram;perimeter=parallelogramPerimeter;whiteSpace=wrap;html=1;fixedSize=1;" parent="1" vertex="1">
                    <mxGeometry x="558" y="626" width="177" height="31.5" as="geometry"/>
                </mxCell>
                <mxCell id="X82TEkIW_1v4thmt-Yyp-166" style="edgeStyle=orthogonalEdgeStyle;rounded=0;orthogonalLoop=1;jettySize=auto;html=1;entryX=0.75;entryY=1;entryDx=0;entryDy=0;" parent="1" source="X82TEkIW_1v4thmt-Yyp-159" target="X82TEkIW_1v4thmt-Yyp-108" edge="1">
                    <mxGeometry relative="1" as="geometry">
                        <Array as="points">
                            <mxPoint x="1521" y="693"/>
                            <mxPoint x="1521" y="462"/>
                            <mxPoint x="947" y="462"/>
                        </Array>
                    </mxGeometry>
                </mxCell>
                <mxCell id="X82TEkIW_1v4thmt-Yyp-159" value="&lt;font color=&quot;#0000ff&quot;&gt;popPedido&lt;/font&gt;" style="shape=parallelogram;perimeter=parallelogramPerimeter;whiteSpace=wrap;html=1;fixedSize=1;" parent="1" vertex="1">
                    <mxGeometry x="588" y="677" width="131" height="31.5" as="geometry"/>
                </mxCell>
                <mxCell id="X82TEkIW_1v4thmt-Yyp-169" style="edgeStyle=orthogonalEdgeStyle;rounded=0;orthogonalLoop=1;jettySize=auto;html=1;entryX=0.5;entryY=1;entryDx=0;entryDy=0;" parent="1" source="X82TEkIW_1v4thmt-Yyp-167" target="X82TEkIW_1v4thmt-Yyp-145" edge="1">
                    <mxGeometry relative="1" as="geometry"/>
                </mxCell>
                <mxCell id="X82TEkIW_1v4thmt-Yyp-167" value="pedidoAsignado" style="rounded=1;whiteSpace=wrap;html=1;" parent="1" vertex="1">
                    <mxGeometry x="405" y="739" width="112" height="31" as="geometry"/>
                </mxCell>
                <mxCell id="X82TEkIW_1v4thmt-Yyp-174" style="edgeStyle=orthogonalEdgeStyle;rounded=0;orthogonalLoop=1;jettySize=auto;html=1;entryX=0;entryY=0.5;entryDx=0;entryDy=0;" parent="1" source="X82TEkIW_1v4thmt-Yyp-171" target="X82TEkIW_1v4thmt-Yyp-173" edge="1">
                    <mxGeometry relative="1" as="geometry"/>
                </mxCell>
                <mxCell id="X82TEkIW_1v4thmt-Yyp-171" value="entregaPedido" style="rounded=1;whiteSpace=wrap;html=1;" parent="1" vertex="1">
                    <mxGeometry x="405" y="783" width="112" height="31" as="geometry"/>
                </mxCell>
                <mxCell id="X82TEkIW_1v4thmt-Yyp-178" style="edgeStyle=orthogonalEdgeStyle;rounded=0;orthogonalLoop=1;jettySize=auto;html=1;exitX=1;exitY=0.5;exitDx=0;exitDy=0;entryX=0;entryY=0.5;entryDx=0;entryDy=0;" parent="1" source="X82TEkIW_1v4thmt-Yyp-173" target="X82TEkIW_1v4thmt-Yyp-177" edge="1">
                    <mxGeometry relative="1" as="geometry"/>
                </mxCell>
                <mxCell id="X82TEkIW_1v4thmt-Yyp-173" value="&lt;font color=&quot;#0000ff&quot;&gt;pushRepartidor&lt;/font&gt;" style="shape=parallelogram;perimeter=parallelogramPerimeter;whiteSpace=wrap;html=1;fixedSize=1;" parent="1" vertex="1">
                    <mxGeometry x="570" y="782.5" width="131" height="31.5" as="geometry"/>
                </mxCell>
                <mxCell id="X82TEkIW_1v4thmt-Yyp-181" style="edgeStyle=orthogonalEdgeStyle;rounded=0;orthogonalLoop=1;jettySize=auto;html=1;entryX=0;entryY=0.5;entryDx=0;entryDy=0;" parent="1" source="X82TEkIW_1v4thmt-Yyp-177" target="X82TEkIW_1v4thmt-Yyp-179" edge="1">
                    <mxGeometry relative="1" as="geometry"/>
                </mxCell>
                <mxCell id="X82TEkIW_1v4thmt-Yyp-177" value="&lt;font color=&quot;#0000ff&quot;&gt;vacioRepartidor&lt;/font&gt;" style="shape=parallelogram;perimeter=parallelogramPerimeter;whiteSpace=wrap;html=1;fixedSize=1;" parent="1" vertex="1">
                    <mxGeometry x="708" y="783" width="131" height="31.5" as="geometry"/>
                </mxCell>
                <mxCell id="X82TEkIW_1v4thmt-Yyp-179" value="&lt;font color=&quot;#0000ff&quot;&gt;Estructura(cola) RepartidoresEspera&lt;/font&gt;" style="shape=hexagon;perimeter=hexagonPerimeter2;whiteSpace=wrap;html=1;fixedSize=1;" parent="1" vertex="1">
                    <mxGeometry x="857" y="778" width="138" height="43.62" as="geometry"/>
                </mxCell>
                <mxCell id="X82TEkIW_1v4thmt-Yyp-185" value="&lt;font color=&quot;#0000cc&quot;&gt;imprimirCliente&lt;/font&gt;" style="shape=parallelogram;perimeter=parallelogramPerimeter;whiteSpace=wrap;html=1;fixedSize=1;" parent="1" vertex="1">
                    <mxGeometry x="914" y="705" width="131" height="31.5" as="geometry"/>
                </mxCell>
            </root>
        </mxGraphModel>
    </diagram>
</mxfile>